<?xml version="1.0" standalone="no"?>
<!DOCTYPE svg PUBLIC "-//W3C//DTD SVG 20010904//EN"
 "http://www.w3.org/TR/2001/REC-SVG-20010904/DTD/svg10.dtd">
<svg version="1.0" xmlns="http://www.w3.org/2000/svg"
 width="50.000000pt" height="50.000000pt" viewBox="0 0 50.000000 50.000000"
 preserveAspectRatio="xMidYMid meet">

<g transform="translate(0.000000,50.000000) scale(0.100000,-0.100000)"
fill="#4371CC" stroke="none">
<path d="M155 456 c-60 -28 -87 -56 -114 -116 -36 -79 -19 -183 42 -249 33
-36 115 -71 167 -71 52 0 134 35 167 71 34 37 63 110 63 159 0 52 -35 134 -71
167 -37 34 -110 63 -159 63 -27 0 -65 -10 -95 -24z m140 -26 c18 -8 18 -9 2
-9 -30 -1 -77 -56 -77 -89 0 -34 31 -78 62 -88 16 -5 18 -8 7 -15 -38 -24
-109 4 -135 53 -47 90 47 189 141 148z m49 -66 c31 -30 9 -84 -34 -84 -24 0
-50 26 -50 50 0 24 26 50 50 50 10 0 26 -7 34 -16z m-221 -111 c20 -38 82 -73
127 -73 75 0 149 75 151 151 l1 34 19 -40 c23 -49 24 -94 4 -143 -67 -160
-283 -160 -350 0 -20 48 -19 88 2 140 l18 43 5 -40 c4 -22 14 -55 23 -72z"/>
</g>
</svg>
